<?xml version="1.0" standalone="no"?>
<!DOCTYPE svg PUBLIC "-//W3C//DTD SVG 20010904//EN"
 "http://www.w3.org/TR/2001/REC-SVG-20010904/DTD/svg10.dtd">
<svg version="1.0" xmlns="http://www.w3.org/2000/svg"
 width="512.000000pt" height="512.000000pt" viewBox="0 0 512.000000 512.000000"
 preserveAspectRatio="xMidYMid meet">
<metadata>
Created by potrace 1.11, written by Peter Selinger 2001-2013
</metadata>
<g transform="translate(0.000000,512.000000) scale(0.100000,-0.100000)"
fill="#000000" stroke="none">
<path d="M160 2560 l0 -2400 2400 0 2400 0 0 2400 0 2400 -2400 0 -2400 0 0
-2400z m1200 1720 l0 -520 -520 0 -520 0 0 520 0 520 520 0 520 0 0 -520z
m1120 0 l0 -520 -480 0 -480 0 0 520 0 520 480 0 480 0 0 -520z m1120 0 l0
-520 -480 0 -480 0 0 520 0 520 480 0 480 0 0 -520z m1200 0 l0 -520 -520 0
-520 0 0 520 0 520 520 0 520 0 0 -520z m-3440 -1160 l0 -480 -520 0 -520 0 0
480 0 480 520 0 520 0 0 -480z m1120 0 l0 -480 -480 0 -480 0 0 480 0 480 480
0 480 0 0 -480z m1120 0 l0 -480 -480 0 -480 0 0 480 0 480 480 0 480 0 0
-480z m1200 0 l0 -480 -520 0 -520 0 0 480 0 480 520 0 520 0 0 -480z m-3440
-1120 l0 -480 -520 0 -520 0 0 480 0 480 520 0 520 0 0 -480z m1120 0 l0 -480
-480 0 -480 0 0 480 0 480 480 0 480 0 0 -480z m1120 0 l0 -480 -480 0 -480 0
0 480 0 480 480 0 480 0 0 -480z m1200 0 l0 -480 -520 0 -520 0 0 480 0 480
520 0 520 0 0 -480z m-3440 -1160 l0 -520 -520 0 -520 0 0 520 0 520 520 0
520 0 0 -520z m1120 0 l0 -520 -480 0 -480 0 0 520 0 520 480 0 480 0 0 -520z
m1120 0 l0 -520 -480 0 -480 0 0 520 0 520 480 0 480 0 0 -520z m1200 0 l0
-520 -520 0 -520 0 0 520 0 520 520 0 520 0 0 -520z"/>
<path d="M640 4480 l0 -80 80 0 80 0 0 80 0 80 -80 0 -80 0 0 -80z"/>
<path d="M880 4240 l0 -80 80 0 80 0 0 80 0 80 -80 0 -80 0 0 -80z"/>
<path d="M1901 4544 c-129 -46 -211 -154 -217 -284 -4 -104 29 -188 101 -255
79 -73 207 -102 307 -69 66 21 93 38 138 85 105 109 117 277 29 406 -73 105
-239 160 -358 117z m188 -172 c40 -30 60 -64 66 -113 20 -154 -176 -241 -274
-122 -69 84 -39 211 59 252 35 15 120 5 149 -17z"/>
<path d="M4152 4549 c-45 -13 -122 -62 -151 -95 -13 -15 -35 -50 -50 -78 -22
-44 -26 -63 -26 -136 1 -70 5 -94 25 -134 62 -123 171 -187 309 -182 248 10
383 294 240 503 -69 100 -230 157 -347 122z m177 -177 c48 -36 64 -68 65 -131
1 -52 -3 -64 -30 -98 -103 -127 -307 -36 -280 125 7 43 50 100 90 118 40 18
122 11 155 -14z"/>
<path d="M688 3418 c-126 -43 -218 -185 -205 -317 9 -93 32 -145 90 -203 85
-85 200 -116 313 -83 149 43 236 164 230 318 -9 218 -218 358 -428 285z m207
-172 c69 -53 82 -153 29 -223 -30 -39 -49 -50 -100 -58 -149 -24 -244 165
-135 269 15 15 41 31 57 36 45 14 113 3 149 -24z"/>
<path d="M3021 3424 c-87 -31 -149 -86 -191 -170 -20 -41 -25 -63 -25 -134 0
-71 5 -93 25 -134 33 -65 94 -126 155 -156 72 -34 199 -34 270 0 179 87 238
311 124 477 -73 105 -239 160 -358 117z m188 -172 c48 -36 64 -68 65 -130 1
-49 -3 -64 -27 -95 -65 -86 -187 -88 -250 -6 -86 114 -2 270 138 255 27 -3 61
-14 74 -24z"/>
<path d="M1898 2302 c-58 -19 -86 -39 -135 -91 -108 -116 -107 -310 2 -426 67
-72 151 -105 254 -101 211 8 351 222 280 426 -55 158 -240 247 -401 192z m191
-169 c49 -37 65 -70 66 -132 0 -51 -4 -64 -31 -98 -115 -142 -340 -10 -270
158 16 39 50 73 86 88 36 15 119 6 149 -16z"/>
<path d="M4140 2303 c-195 -68 -278 -296 -172 -468 33 -53 79 -95 138 -125 69
-35 196 -35 268 0 243 118 243 465 1 579 -64 30 -171 37 -235 14z m195 -177
c85 -65 85 -187 -1 -252 -64 -49 -157 -39 -211 22 -74 83 -39 222 63 254 45
14 113 3 149 -24z"/>
<path d="M700 1183 c-128 -43 -210 -152 -216 -285 -6 -136 59 -246 181 -307
85 -42 222 -35 304 17 153 97 194 308 89 460 -32 47 -113 104 -169 119 -52 15
-139 13 -189 -4z m185 -169 c61 -40 90 -130 62 -196 -60 -143 -279 -117 -302
36 -12 76 27 147 95 175 33 14 113 6 145 -15z"/>
<path d="M3007 1178 c-125 -43 -216 -185 -203 -316 7 -76 15 -99 44 -147 33
-54 82 -98 140 -126 68 -33 197 -33 266 1 72 35 141 110 164 179 57 170 -17
337 -183 410 -50 22 -162 22 -228 -1z m201 -165 c91 -68 95 -192 6 -259 -63
-48 -160 -39 -212 21 -72 81 -44 205 56 252 37 17 118 10 150 -14z"/>
<path d="M4480 840 l0 -200 -120 0 -120 0 0 -80 0 -80 200 0 200 0 0 280 0
280 -80 0 -80 0 0 -200z"/>
<path d="M3920 560 l0 -80 80 0 80 0 0 80 0 80 -80 0 -80 0 0 -80z"/>
</g>
</svg>
